# xmcd CD database file
#
# Track frame offsets:
#	150
#	6479
#	32799
#	55951
#	73503
#	102656
#	121933
#	150816
#	176026
#	204394
#	211023
#	238158
#	262371
#	287458
#	314272
#
# Disc length: 4384 seconds
#
# Revision: 2
# Processed by: cddbd v1.4PL0 Copyright (c) Steve Scherf et al.
# Submitted via: CDex 1.50Beta3
#
DISCID=d7111e0f
DTITLE=Globe - CRUISE RECORD 1995-2000 Disc2
DYEAR=2000
DGENRE=J-pop
TTITLE0="2"
TTITLE1=Can't Stop Fallin' In Love
TTITLE2=RUN AWAY FROM THE NIGHT
TTITLE3=Piano solo
TTITLE4=FACES PLACES
TTITLE5=Joy to the love
TTITLE6=millenium waves
TTITLE7=wanna Be A Dreammaker
TTITLE8=FACE
TTITLE9=interlude
TTITLE10=SHOCK INSIDE MY BRAIN
TTITLE11=You are the one
TTITLE12=Is this love
TTITLE13=Feel Like dance
TTITLE14=to be continued 2000
EXTD=YEAR: 2000
EXTT0=
EXTT1=
EXTT2=
EXTT3=
EXTT4=
EXTT5=
EXTT6=
EXTT7=
EXTT8=
EXTT9=
EXTT10=
EXTT11=
EXTT12=
EXTT13=
EXTT14=
PLAYORDER=
